PathFileType	4	(X/Y/Z)	Kaydara	
DataRate	CameraRate	NumFrames	NumMarkers	Units	OrigDataRate	OrigDataStartFrame	OrigNumFrames	
120.00	120.00	4	72	mm	120.00	135	268	
Frame#	Time	Hips			RightUpLeg			RightLeg			RightFoot			RightFoot_End			LeftUpLeg			LeftLeg			LeftFoot			LeftFoot_End			Spine			Spine1			Spine2			Spine3			Neck			Head			Head_End			RightShoulder			RightArm			RightForeArm			RightHand			RightHandThumb1			RightHandThumb2			RightHandThumb3			RightHandThumb3_End			RightInHandIndex			RightHandIndex1			RightHandIndex2			RightHandIndex3			RightHandIndex3_End			RightInHandMiddle			RightHandMiddle1			RightHandMiddle2			RightHandMiddle3			RightHandMiddle3_End			RightInHandRing			RightHandRing1			RightHandRing2			RightHandRing3			RightHandRing3_End			RightInHandPinky			RightHandPinky1			RightHandPinky2			RightHandPinky3			RightHandPinky3_End			LeftShoulder			LeftArm			LeftForeArm			LeftHand			LeftHandThumb1			LeftHandThumb2			LeftHandThumb3			LeftHandThumb3_End			LeftInHandIndex			LeftHandIndex1			LeftHandIndex2			LeftHandIndex3			LeftHandIndex3_End			LeftInHandMiddle			LeftHandMiddle1			LeftHandMiddle2			LeftHandMiddle3			LeftHandMiddle3_End			LeftInHandRing			LeftHandRing1			LeftHandRing2			LeftHandRing3			LeftHandRing3_End			LeftInHandPinky			LeftHandPinky1			LeftHandPinky2			LeftHandPinky3			LeftHandPinky3_End			
		X1	Y1	Z1	X2	Y2	Z2	X3	Y3	Z3	X4	Y4	Z4	X5	Y5	Z5	X6	Y6	Z6	X7	Y7	Z7	X8	Y8	Z8	X9	Y9	Z9	X10	Y10	Z10	X11	Y11	Z11	X12	Y12	Z12	X13	Y13	Z13	X14	Y14	Z14	X15	Y15	Z15	X16	Y16	Z16	X17	Y17	Z17	X18	Y18	Z18	X19	Y19	Z19	X20	Y20	Z20	X21	Y21	Z21	X22	Y22	Z22	X23	Y23	Z23	X24	Y24	Z24	X25	Y25	Z25	X26	Y26	Z26	X27	Y27	Z27	X28	Y28	Z28	X29	Y29	Z29	X30	Y30	Z30	X31	Y31	Z31	X32	Y32	Z32	X33	Y33	Z33	X34	Y34	Z34	X35	Y35	Z35	X36	Y36	Z36	X37	Y37	Z37	X38	Y38	Z38	X39	Y39	Z39	X40	Y40	Z40	X41	Y41	Z41	X42	Y42	Z42	X43	Y43	Z43	X44	Y44	Z44	X45	Y45	Z45	X46	Y46	Z46	X47	Y47	Z47	X48	Y48	Z48	X49	Y49	Z49	X50	Y50	Z50	X51	Y51	Z51	X52	Y52	Z52	X53	Y53	Z53	X54	Y54	Z54	X55	Y55	Z55	X56	Y56	Z56	X57	Y57	Z57	X58	Y58	Z58	X59	Y59	Z59	X60	Y60	Z60	X61	Y61	Z61	X62	Y62	Z62	X63	Y63	Z63	X64	Y64	Z64	X65	Y65	Z65	X66	Y66	Z66	X67	Y67	Z67	X68	Y68	Z68	X69	Y69	Z69	X70	Y70	Z70	X71	Y71	Z71	X72	Y72	Z72	

135	1.117	5446.805	859.65103	-201.189	5501.57068492132	845.8365920322141	-239.3265038290979	5402.788229994274	445.17939032663645	-273.4337323948927	5472.190644974256	62.28799457612263	-388.90288471855933	5439.920066915852	-30.324371157271237	-241.69678314304934	5399.727303685585	844.7424502704505	-150.0598308820296	5279.259737735554	450.35721017649024	-80.57935994712724	5209.646263137564	72.64348543541206	78.55650912344557	5260.273306519737	21.178214631952923	252.94002853245019	5409.822246196195	985.9587678954945	-255.6888255332445	5361.4134052838535	1057.5495755207282	-299.04281525960596	5305.1154726818	1127.097728219725	-344.54575833276823	5243.471021745504	1186.073543582652	-388.8924397054353	5176.357236287298	1248.8669461261422	-432.46642698500534	5132.656658723249	1321.087193212728	-391.9452157406928	5110.572342827339	1409.8072049185744	-263.00304762723965	5209.362069404274	1230.7490570808222	-433.9031816229948	5255.950457440378	1221.163376137506	-491.15837380928195	5317.4077453243335	1038.0856272548385	-465.99326869959964	5356.519794204964	964.2985559551212	-528.6089303383952	5361.53760551701	973.2363031194822	-539.4186288182084	5357.35990734081	976.2408389545042	-555.0858411852378	5354.687997109305	975.9157702762745	-565.019674814988	5352.663661897887	973.5767323222173	-572.4654477021769	5363.968765807388	965.2937206877024	-536.2574803697528	5371.3842265249	958.2673395343422	-547.1447523012168	5370.56409342816	953.8946403109702	-558.2002569782155	5366.00264991817	953.9743343778473	-566.9339935412705	5359.494233345614	955.9277670951768	-575.4178971519334	5364.072196474566	958.9878413213294	-533.3871304459806	5371.362663379593	948.7235213703659	-542.4526838506799	5370.449863444848	943.1434253747448	-554.1067321679176	5364.938057361666	942.8515538957265	-564.4470663238328	5357.812491864429	944.8003329766232	-573.6344179066182	5364.019793830968	954.6895902593811	-531.041859040892	5370.694546923819	941.6938293904677	-537.0148384083626	5369.8684802059715	936.0201413992237	-546.7399410114034	5364.535717900465	935.3084281953271	-556.4842782807677	5357.828215581742	936.9369223311697	-565.0138374263962	5363.242332440523	950.1160378334584	-528.3349121850993	5369.101393295598	935.29922550598	-532.0152906649745	5368.362801207362	929.5490057393645	-539.1021173665854	5364.43576148008	928.4460378790945	-545.8707363893119	5358.472538795859	929.5526153846116	-553.2314762509521	5187.790845475835	1227.814768571076	-401.0892132007194	5158.416311583807	1188.0274119504645	-340.62859378331996	5225.030617682514	1060.1926107832603	-443.6303252611354	5335.993431700283	991.6448137474993	-428.23963666047774	5329.170068539773	1004.3175648980747	-433.130427813711	5335.8225638674085	1003.3815456359738	-450.8302686074829	5341.334548740062	1000.2411009695612	-464.42702736177705	5346.681772930264	995.4941211441682	-476.8490104542808	5330.505356998127	997.2920578218926	-437.3665133886354	5330.534654054894	993.5185086780039	-459.3515597779486	5336.913245746314	986.9785053798618	-478.74983745213865	5343.6503932183305	983.0841948387999	-490.3186380489513	5351.096244080057	979.9766279386658	-499.56286573859614	5333.197800337692	990.4687770401625	-440.25192262505885	5334.680904995709	983.0985695611134	-463.2550263946011	5342.004324363386	975.0691599851041	-484.7369362504496	5350.306696920312	969.9423104344345	-498.8451992365022	5358.538520636273	966.3337543093489	-509.0334342372481	5335.040454159952	985.7671466410651	-441.7005008349928	5337.7971116879025	975.1470964483358	-463.48867778517564	5344.549678831153	967.2472965227048	-482.4979428014871	5352.754179796953	961.8233797474703	-496.25812366539486	5360.587149332893	958.2036035288694	-505.90948982070825	5337.626632445771	980.2785786862721	-442.9611084606944	5341.552070935123	967.2292809468463	-463.63224848117784	5347.524069763072	959.5433671913747	-479.20485098102915	5353.781675827503	954.9292417654685	-489.41122591526505	5360.877647102461	951.3440814006982	-498.0583960506416
136	1.125	5446.805	859.65103	-201.189	5500.764332272712	845.7537342705851	-239.03387422372916	5403.063049240452	444.9234142521681	-272.94176608600065	5472.203826021472	62.80838543269946	-389.66035750421577	5441.138589786219	-30.176943232857674	-243.0105529984464	5400.475784294435	844.799788051496	-150.3763153115905	5279.674900982853	450.59391936472366	-80.47594465466864	5209.614337234904	73.21418474204386	79.20663937761958	5260.405942411818	21.73727147470078	253.48220359114325	5410.124522673545	986.0760897310217	-255.60163911248372	5361.8767328638905	1057.8616297678489	-298.8041490938217	5305.752392185571	1127.644544209041	-344.1386543995406	5244.288973801284	1186.9129154596706	-388.306862529213	5177.375237903027	1250.0258149925714	-431.664488105031	5133.945426720998	1322.43291634304	-391.16734682011656	5112.0257217452545	1411.3927231988273	-262.41451680617166	5210.095876218396	1231.8035137784887	-432.89049113802116	5255.876027420517	1222.5099893496206	-488.88747854540867	5318.8269059194	1041.558371220132	-462.65583927597345	5358.027278031023	970.4239361164831	-523.6516171935859	5362.906008326582	979.890828744029	-533.9990640203741	5358.963423637777	983.3280845457589	-549.2490093959193	5356.483662592352	983.2792315375389	-558.9289449838383	5354.643822637832	981.1489645359261	-566.1944387254033	5365.395576938739	971.9172361516005	-530.9271373506756	5372.926090813925	965.5133519597239	-541.3798614265547	5372.349978894065	961.5176211781416	-552.1323218746945	5367.998164104983	961.7729799537445	-560.6811382182058	5361.702326270713	963.8322178741358	-569.014332363887	5365.580082622922	965.5186676384318	-528.1716639300919	5373.026575622803	955.811392802934	-536.8755094580553	5372.390580819456	950.6283248934526	-548.2154425981274	5367.136736681538	950.5415147739042	-558.3406270908837	5360.24622723772	952.6027232559596	-567.3669399707707	5365.58056726871	961.1395770092424	-525.9188015934108	5372.4368006873965	948.5744174146781	-531.6483040118044	5371.862530535235	943.2312607734883	-541.1171235653943	5366.784186266092	942.7091035846082	-550.6632258178514	5360.300346493581	944.4394037402144	-559.0457722580235	5364.872199276291	956.4506389378479	-523.3296910976138	5370.935459701963	941.9596178919396	-526.859795938727	5370.414147758402	936.447981021604	-533.7697644260514	5366.68025236093	935.4706534039263	-540.4075105907182	5360.919515397509	936.6601499821485	-547.6459173940466	5188.949295633781	1228.8367837701644	-400.66498976151047	5160.3360363756865	1189.4336151379619	-341.4648482521979	5227.386585429458	1063.1449319644448	-442.2869586428225	5336.745241773434	997.0187970915504	-425.6791355406201	5330.3502870523425	1010.0428289714312	-430.1927944931003	5337.123443245041	1009.2360707880449	-447.44141955873687	5342.692348001682	1006.1809100739524	-460.75824229700345	5348.063833238621	1001.5009786109684	-472.97618964770584	5331.657343693381	1003.0600618038836	-434.53022261092576	5332.06930793842	999.7521215297108	-456.16456908951653	5338.555882078548	993.3893602888579	-475.24924282810116	5345.265650485094	989.4924014908594	-486.58417941930117	5352.625088809571	986.3065289126662	-495.6086006747728	5334.255212452257	996.2007248931889	-437.51779762009676	5336.060449036968	989.265197300129	-460.2341205954647	5343.487780827531	981.4227428373557	-481.38835738609106	5351.750442517932	976.2896022584614	-495.2214449055308	5359.884468204154	972.5938602376707	-505.17256194965233	5336.022790694915	991.4632912327958	-439.0483657311955	5339.007379389577	981.2062620432838	-460.6532210985894	5345.835767037927	973.4621170092283	-479.3921800798014	5353.994130642276	968.0282572313757	-492.8950545362119	5361.731433231334	964.3246679443998	-502.32731893677857	5338.499486621884	985.9077422106118	-440.4068520356865	5342.571665245647	973.155469991519	-460.9729667524276	5348.580361849922	965.5812218337081	-476.35377283538685	5354.792697458566	960.9535664110854	-486.38439396660783	5361.797237408115	957.2905486248624	-494.84433925672454
137	1.133	5446.805	859.65103	-201.189	5499.96549618081	845.6839044835118	-238.71723759473812	5403.343811773037	444.6848163348355	-272.4361779517135	5472.18987521656	63.335322306822434	-390.37025080663363	5442.317139511753	-30.023286346939663	-244.2921122900142	5401.21736777243	844.8450400921506	-150.71525613359486	5280.077748988237	450.82159888384075	-80.39241492524229	5209.57881714065	73.79321140192663	79.88315592230599	5260.526263191924	22.320890475059635	254.05559299445758	5410.423668709886	986.1884995964306	-255.5227023234883	5362.3354922787585	1058.1678471676312	-298.5724923851078	5306.383528163296	1128.1855209753173	-343.7358316136067	5245.099635194381	1187.7466862645413	-387.72065288107706	5178.385574060464	1251.1803731176826	-430.85618818455225	5135.242893072363	1323.7836473564844	-390.38005414724046	5113.49453362329	1412.9912030405537	-261.82153797587154	5210.823881885576	1232.8626370840727	-431.8634666878756	5255.805312272506	1223.9118574411261	-486.5641271087083	5320.359173340797	1045.1433585947902	-459.28540935951077	5359.743629577197	976.8309009631637	-518.6347969416712	5364.478082360806	986.8605818278149	-528.4929979127693	5360.779651512514	990.7572622777091	-543.3082769877036	5358.501107575396	991.00248067113	-552.7250071201007	5356.855693970324	989.095235910307	-559.8048659193634	5367.034961507576	978.8574675969744	-525.5174197506415	5374.698894153214	973.1224319721832	-535.5176787479959	5374.3825681860135	969.5302657209688	-545.9571245662765	5370.248137698613	969.9717243871853	-554.3152951438437	5364.169918271886	972.1412903394199	-562.4933598517089	5367.307584791134	972.3623110560134	-522.8852064503155	5374.931825651912	963.2551840111897	-531.2144021708781	5374.59071186571	958.497493953111	-542.2305078693132	5369.604605629641	958.6280124195521	-552.1341952391996	5362.9548702903085	960.8064423421863	-560.9949055319469	5367.3654551252985	967.898505333979	-520.7311228478362	5374.426515903147	955.7993923493367	-526.2110481873076	5374.120655911471	950.8107214733229	-535.4163331937848	5369.306615316594	950.4895518801543	-544.7587223851574	5363.052030548539	952.3259736911936	-552.9902703542053	5366.730900247942	963.0878847852708	-518.2677924311871	5373.022661033749	948.9515057875772	-521.6468846568401	5372.733170493666	943.6963001931703	-528.3761084627562	5369.200228782844	942.8523060532758	-534.8799149612242	5363.647276114069	944.1281734313701	-541.9929925665463	5190.097043644911	1229.8438121277563	-400.2456620356612	5162.240487592234	1190.7978761470777	-342.36126931257706	5229.803494057852	1066.1540683730616	-441.0060719239938	5337.584772335057	1002.6103259517827	-423.11331203890217	5331.648132797776	1016.0087866818276	-427.2346164976638	5338.556059718591	1015.348008505267	-444.02196282209945	5344.189285599478	1012.3905018093319	-457.0544396051448	5349.589127565348	1007.7885529907105	-469.0668973112039	5332.922303838799	1009.0748324079724	-431.68142958143903	5333.7409269619875	1006.274038501051	-452.96319284730976	5340.3452629969315	1000.1102508367817	-471.73227831646864	5347.030049390494	996.2164007987151	-482.8297773145651	5354.302575042386	992.9517576880852	-491.62985594017977	5335.4178389497165	1002.1796298747774	-434.7782698561769	5337.5644133339865	995.7194016951013	-457.2098154486336	5345.1052186167735	988.0874971939653	-478.03515590833666	5353.330528615496	982.9549543199274	-491.5892086181083	5361.365950026844	979.1714900949252	-501.29846401141623	5337.104306767326	997.4055534394906	-436.3959151861208	5340.328973294623	987.5474709508331	-457.8237291817991	5347.240349207246	979.9793600180111	-476.2922753512693	5355.354231992099	974.5421030968762	-489.5346302737555	5362.994816185688	970.7541496004181	-498.743574089528	5339.463403801701	991.7801759735355	-437.858013398314	5343.688665831383	979.3564262252323	-458.32847558859817	5349.737927824764	971.9097148848778	-473.5188690184597	5355.90529569888	967.2730874734089	-483.3721034050969	5362.816951736651	963.5315993985345	-491.6414956957274
138	1.142	5446.805	859.65103	-201.189	5499.1762725066965	845.6276975859847	-238.3769516361977	5403.630112127296	444.4649532950121	-271.9210605535309	5472.1491323216205	63.86826534712394	-391.0319256790162	5443.452885494589	-29.863527510146408	-245.54030104646606	5401.950132283592	844.8777155105842	-151.07616199021152	5280.469277249374	451.03907237182636	-80.32738186239756	5209.54200216674	74.37846331061436	80.58660840878598	5260.6357765784605	22.926990304022723	254.66118058180885	5410.718796152652	986.29550465031	-255.45257952451928	5362.788401439364	1058.4672159495658	-298.34886836051163	5307.007202738989	1128.71905596971	-343.33880232741933	5245.900957318924	1188.5725594871722	-387.13583882108895	5179.385855172094	1252.3276234374475	-430.0441838920055	5136.545955726382	1325.1361119145076	-389.58615068700044	5114.975788081709	1414.5988345786554	-261.2264518678756	5211.544460177674	1233.9240036394044	-430.8251478602337	5255.739443937036	1225.368056030649	-484.1938918650858	5322.006653801865	1048.834799569701	-455.89132367683294	5361.674572889293	983.5108285628895	-513.5768732334928	5366.260866552813	994.1370622858307	-522.9196175285383	5362.816364925103	998.519415534335	-537.2844800235625	5360.748484823149	999.0761893810615	-546.4298890519055	5359.307630619443	997.4058623061726	-553.3197877452593	5368.89363775042	986.1057756219295	-520.0476831360854	5376.710226145329	981.0855312580959	-529.5794304289418	5376.669866748231	977.9230156085905	-539.6975072907279	5372.7607708564465	978.560644036849	-547.860303315229	5366.905327630501	980.8447259441277	-555.8796382665456	5369.2610199122355	979.5099894757598	-517.547181389831	5377.085363294021	971.0456369407287	-525.4906464891861	5377.057604156935	966.7411001844954	-536.1749792167143	5372.349219818218	967.1007651950968	-545.8520261290112	5365.9460928149365	969.4008380033097	-554.5434675629901	5369.380469816844	974.957504616063	-515.4982438315792	5376.670011463131	963.3593856116047	-520.7241504299889	5376.649463640335	958.7486368942359	-529.6601897243186	5372.109782085609	958.6394438560363	-538.7945495194987	5366.090139358723	960.5859501153502	-546.8719573437227	5368.824061798783	970.0187999525243	-513.1686002808557	5375.368671317141	956.2653985252667	-516.3974313746947	5375.325682146089	951.2840327128306	-522.9432509510968	5372.001582656652	950.5807303136976	-529.3108951738449	5366.661770957439	951.9461006792053	-536.2963933546005	5191.2311590246145	1230.8328138594336	-399.83300046674583	5164.124493192062	1192.114593811552	-343.31761712666037	5232.276874821099	1069.2124790356863	-439.7949158781443	5338.514040962274	1008.4109050232827	-420.55419885622547	5333.065306667691	1022.2076388305617	-424.26928996261466	5340.122249012573	1021.710071737453	-440.58615413901276	5345.827181528972	1018.8628815052652	-453.33031936624195	5351.2593690097065	1014.3500383644324	-465.1360719594313	5334.301424837539	1015.3284123546247	-428.83312357730637	5335.549419261322	1013.0768493867879	-449.7612184195004	5342.2808948740285	1007.1341021918258	-468.21317375261594	5348.94330323023	1003.2493114630113	-479.0699384221799	5356.128895399395	999.9055830531948	-487.6413685681471	5336.686636812808	1008.3973386697601	-432.0458758196087	5339.19238233185	1002.4534570093657	-454.19518099006007	5346.855758130453	995.0560355808973	-474.6908221983439	5355.046312950738	989.9311993429692	-487.96228478866533	5362.9828423300205	986.0596343670645	-497.4251723005319	5338.285823279006	1003.5856276375152	-433.7553457198461	5341.761348758228	994.1626689631304	-455.01258247440256	5348.762452247925	986.7912371869236	-473.21091072870684	5356.833726951726	981.3573259871022	-486.18979189745505	5364.377022777401	977.4845981840409	-495.1714032938521	5340.519131835081	997.8873817836856	-435.3263717790851	5344.9025027172775	985.823764013078	-455.71046690841536	5350.99582321299	978.5206272721647	-470.7119712761782	5357.118668572718	973.87970717077	-480.3863256039467	5363.936405873328	970.0592479868008	-488.46199178035386
